Coordinates
version=1
nRows=4
nColumns=63
inDegrees=yes

Units are S.I. units (second, meters, Newtons, ...)
If the header above contains a line with 'inDegrees', this indicates whether rotational values are in degrees (yes) or radians (no).

endheader
time	pelvis_tilt	pelvis_list	pelvis_rotation	pelvis_tx	pelvis_ty	pelvis_tz	hip_flexion_r	hip_adduction_r	hip_rotation_r	knee_angle_r	knee_angle_r_beta	ankle_angle_r	subtalar_angle_r	mtp_angle_r	hip_flexion_l	hip_adduction_l	hip_rotation_l	knee_angle_l	knee_angle_l_beta	ankle_angle_l	subtalar_angle_l	mtp_angle_l	L5_S1_Flex_Ext	L5_S1_Lat_Bending	L5_S1_axial_rotation	L4_L5_Flex_Ext	L4_L5_Lat_Bending	L4_L5_axial_rotation	L3_L4_Flex_Ext	L3_L4_Lat_Bending	L3_L4_axial_rotation	L2_L3_Flex_Ext	L2_L3_Lat_Bending	L2_L3_axial_rotation	L1_L2_Flex_Ext	L1_L2_Lat_Bending	L1_L2_axial_rotation	L1_T12_Flex_Ext	L1_T12_Lat_Bending	L1_T12_axial_rotation	Abs_r3	Abs_r2	Abs_r1	Abs_t1	Abs_t2	neck_flexion	neck_bending	neck_rotation	arm_flex_r	arm_add_r	arm_rot_r	elbow_flex_r	pro_sup_r	wrist_flex_r	wrist_dev_r	arm_flex_l	arm_add_l	arm_rot_l	elbow_flex_l	pro_sup_l	wrist_flex_l	wrist_dev_l
      8.45762712	      1.74336432	    -12.10385450	     96.72959381	      0.18794757	      0.36948084	      0.55484417	      5.88876179	      2.86309108	      6.73727080	     24.05754671	      0.41988340	     28.14022506	    -16.43351042	      0.00000000	      4.84349950	     -2.53803988	    -14.88497297	     26.26616966	      0.45843114	     32.70544296	     -2.89161992	      0.00000000	      0.81843671	      0.11042758	      0.54087411	      1.51991881	      0.14686868	      0.57467874	      1.34460967	      0.26849362	      0.57467874	      0.93539132	      0.26849362	      0.47326484	      0.76000033	      0.22518392	      0.43946021	      0.46765474	      0.17105232	      0.40565558	      5.84601157	      1.24917886	      3.00817952	      0.00000000	      0.00000000	     28.34452052	     -2.16518087	    -29.81806469	     49.60160628	    -44.43601204	     18.42223231	    144.82708264	     89.16067125	     -5.03519778	      9.74512522	     57.29922156	    -41.61492671	     28.61062523	    146.88549194	     89.32501426	     -4.86162407	     14.20388322
      8.47457627	      2.15459577	    -12.00375042	     96.73982898	      0.18680424	      0.37721949	      0.55174505	      4.26391175	      3.03088108	      6.42471714	     20.76569818	      0.36242980	     23.56676442	    -17.02682713	      0.00000000	      3.75449004	     -2.94141048	    -15.88539614	     24.36616184	      0.42526975	     30.58104922	     -1.73844241	      0.00000000	      0.80916254	      0.16331157	      0.48152660	      1.50269575	      0.21720438	      0.51162202	      1.32937313	      0.39707574	      0.51162202	      0.92479186	      0.39707574	      0.42133578	      0.75138833	      0.33302494	      0.39124036	      0.46235547	      0.25296961	      0.36114495	      5.77976709	      1.84741309	      2.67810651	      0.00000000	      0.00000000	     28.34578642	     -3.75900793	    -34.81991429	     54.73274520	    -43.82539819	     17.28786110	    140.09765805	     89.39029452	     -7.20973069	      4.03744249	     62.54033293	    -38.78434010	     25.66776816	    142.12011348	     89.39941973	     -4.37122705	     15.07868649
      8.49152542	      2.84771668	    -11.55867120	     96.85407181	      0.18472208	      0.38644541	      0.54964871	      2.29924514	      3.35175149	      5.17298201	     17.20214779	      0.30023412	     18.27846552	    -16.98525292	      0.00000000	      2.45153857	     -3.56155864	    -16.61449775	     22.48437435	      0.39242636	     28.25727797	     -0.47011982	      0.00000000	      0.78888391	      0.31265404	      0.31858929	      1.46503632	      0.41582987	      0.33850112	      1.29605738	      0.76018702	      0.33850112	      0.90161543	      0.76018702	      0.27876563	      0.73255760	      0.63756411	      0.25885380	      0.45076827	      0.48430110	      0.23894197	      5.63491891	      3.53680499	      1.77189806	      0.00000000	      0.00000000	     28.34033866	     -3.99438438	    -32.33027373	     62.94966000	    -42.11357214	     20.95782085	    131.37363515	     89.47948050	    -12.98811760	     -3.18283830	     66.40698507	    -36.53097490	     23.74117138	    134.41271241	     89.42404270	    -10.29272881	      7.85743551
      8.50847458	      3.33507602	    -10.91749897	     96.58823714	      0.18293114	      0.39651762	      0.54837746	      0.35364558	      3.49014748	      3.84058600	     13.98487752	      0.24408216	     12.74154437	    -16.70980701	      0.00000000	      0.85538461	     -3.84563957	    -17.25078263	     20.37360734	      0.35558653	     25.50779509	      0.32039079	      0.00000000	      0.75956473	      0.51182117	      0.05247888	      1.41058767	      0.68072215	      0.05575881	      1.24788890	      1.24444198	      0.05575881	      0.86810653	      1.24444198	      0.04591902	      0.70533181	      1.04370572	      0.04263909	      0.43401529	      0.79281099	      0.03935916	      5.42549494	      5.78982339	      0.29187177	      0.00000000	      0.00000000	     28.33273096	     -2.83606998	    -21.03610472	     73.17923683	    -37.74619522	     28.55398912	    118.81742975	     89.45920250	    -21.65054486	     -8.69989302	     69.91831534	    -35.71505858	     23.03294289	    124.90888620	     89.35778545	    -23.61221597	     -2.31470096
